<?xml version="1.0" encoding="iso-8859-1"?>
<!-- Generator: Adobe Illustrator 19.0.0, SVG Export Plug-In . SVG Version: 6.00 Build 0)  -->
<svg version="1.1" id="Capa_1" xmlns="http://www.w3.org/2000/svg" xmlns:xlink="http://www.w3.org/1999/xlink" x="0px" y="0px"
	width="175" height="175" viewBox="0 0 512 512" style="enable-background:new 0 0 512 512;" xml:space="preserve">
<g>
	<path style="fill:#FFC107;" d="M224,170.667c-42.859,0-64.683-5.099-77.781-18.219C133.12,139.328,128,117.547,128,74.667
		C128,68.776,123.224,64,117.333,64s-10.667,4.776-10.667,10.667c0,42.88-5.099,64.683-18.219,77.781s-34.923,18.219-77.781,18.219
		C4.776,170.667,0,175.442,0,181.333C0,187.224,4.776,192,10.667,192c42.859,0,64.683,5.099,77.781,18.219
		S106.667,245.12,106.667,288c0,5.891,4.776,10.667,10.667,10.667S128,293.891,128,288c0-42.88,5.099-64.683,18.219-77.781
		S181.141,192,224,192c5.891,0,10.667-4.776,10.667-10.667C234.667,175.442,229.891,170.667,224,170.667z"/>
	<path style="fill:#FFC107;" d="M288,42.667c-14.933,0-22.784-1.621-26.603-5.419S256,25.6,256,10.667
		C256,4.776,251.224,0,245.333,0c-5.891,0-10.667,4.776-10.667,10.667c0,14.933-1.621,22.784-5.397,26.581
		c-3.776,3.797-11.669,5.419-26.603,5.419c-5.891,0-10.667,4.776-10.667,10.667S196.776,64,202.667,64
		c14.933,0,22.784,1.621,26.603,5.419s5.397,11.648,5.397,26.581c0,5.891,4.776,10.667,10.667,10.667
		c5.891,0,10.667-4.776,10.667-10.667c0-14.933,1.621-22.784,5.397-26.581C265.173,65.621,273.067,64,288,64
		c5.891,0,10.667-4.776,10.667-10.667S293.891,42.667,288,42.667z"/>
	<path style="fill:#FFC107;" d="M96,426.667c-14.933,0-22.784-1.621-26.603-5.419C65.579,417.451,64,409.6,64,394.667
		C64,388.776,59.224,384,53.333,384s-10.667,4.776-10.667,10.667c0,14.933-1.621,22.784-5.397,26.581s-11.669,5.419-26.603,5.419
		C4.776,426.667,0,431.442,0,437.333S4.776,448,10.667,448c14.933,0,22.784,1.621,26.603,5.419s5.397,11.648,5.397,26.581
		c0,5.891,4.776,10.667,10.667,10.667S64,485.891,64,480c0-14.933,1.621-22.784,5.397-26.581S81.067,448,96,448
		c5.891,0,10.667-4.776,10.667-10.667S101.891,426.667,96,426.667z"/>
	<path style="fill:#FFC107;" d="M501.333,330.667c-24.128,0-36.779-2.795-43.648-9.664c-6.869-6.869-9.685-19.541-9.685-43.669
		c0-5.891-4.776-10.667-10.667-10.667s-10.667,4.776-10.667,10.667c0,24.128-2.795,36.8-9.685,43.669
		c-6.891,6.869-19.52,9.664-43.648,9.664c-5.891,0-10.667,4.776-10.667,10.667S367.442,352,373.333,352
		c24.128,0,36.779,2.795,43.648,9.664c6.869,6.869,9.685,19.541,9.685,43.669c0,5.891,4.776,10.667,10.667,10.667
		S448,411.224,448,405.333c0-24.128,2.795-36.8,9.685-43.669c6.891-6.869,19.52-9.664,43.648-9.664
		c5.891,0,10.667-4.776,10.667-10.667S507.224,330.667,501.333,330.667z"/>
</g>
<path style="fill:#54C8FE;" d="M288,106.667c-5.891,0-10.667,4.776-10.667,10.667v64c0,5.891,4.776,10.667,10.667,10.667
	c30.178-2.112,60.036,7.286,83.563,26.304c2.004,1.999,4.721,3.12,7.552,3.115c2.309,0.009,4.558-0.74,6.4-2.133
	c12.468-8.602,19.884-22.805,19.819-37.952C405.333,144.235,365.035,106.667,288,106.667z"/>
<path style="fill:#00AEFF;" d="M394.667,170.667c-5.891,0-10.667,4.776-10.667,10.667c-0.01,8.471-4.304,16.363-11.413,20.971
	c-24.039,12.93-50.447,20.861-77.632,23.317C244.352,234.667,192,243.904,192,288c-0.602,17.129,7.548,33.389,21.632,43.157
	c3.598,2.637,8.458,2.756,12.181,0.299c22.999-11.069,47.742-18.07,73.131-20.693c49.877-8.811,106.389-18.773,106.389-65.429v-64
	C405.333,175.442,400.558,170.667,394.667,170.667z"/>
<path style="fill:#54C8FE;" d="M278.059,330.667c-18.185-2.107-35.781-7.753-51.797-16.619c-8.64-5.762-13.564-15.683-12.928-26.048
	c0-5.891-4.776-10.667-10.667-10.667S192,282.109,192,288v64c0,47.872,47.467,57.003,82.112,63.637l9.429,1.856
	c0.702,0.145,1.417,0.216,2.133,0.213c0.761-0.003,1.519-0.089,2.261-0.256c14.613-3.157,53.333-11.605,53.333-44.117
	C341.333,342.891,307.712,336.363,278.059,330.667z"/>
<path style="fill:#00AEFF;" d="M330.667,362.667c-5.891,0-10.667,4.776-10.667,10.667c0,7.125-4.16,16.235-36.629,23.296
	c-8.533,1.899-17.707,3.371-26.603,4.821C223.467,406.869,192,412.011,192,437.333v64c0,5.891,4.776,10.667,10.667,10.667
	s10.667-4.776,10.667-10.667c0-7.253,29.461-12.032,47.083-14.933c36.117-5.803,80.917-13.056,80.917-49.067v-64
	C341.333,367.442,336.558,362.667,330.667,362.667z"/>
<g>
</g>
<g>
</g>
<g>
</g>
<g>
</g>
<g>
</g>
<g>
</g>
<g>
</g>
<g>
</g>
<g>
</g>
<g>
</g>
<g>
</g>
<g>
</g>
<g>
</g>
<g>
</g>
<g>
</g>
</svg>
