<svg xmlns="http://www.w3.org/2000/svg" xmlns:xlink="http://www.w3.org/1999/xlink" width="1933.458" height="1528.236" viewBox="0 0 1933.458 1528.236">
  <defs>
    <linearGradient id="linear-gradient" x1="-0.156" y1="-0.732" x2="1.301" y2="2" gradientUnits="objectBoundingBox">
      <stop offset="0" stop-color="#00aeff"/>
      <stop offset="1" stop-color="#6060e7"/>
    </linearGradient>
    <linearGradient id="linear-gradient-4" x1="0.5" y1="-1.17" x2="0.5" y2="3.246" gradientUnits="objectBoundingBox">
      <stop offset="0" stop-color="#3e589e"/>
      <stop offset="1" stop-color="#b8ebff"/>
    </linearGradient>
    <linearGradient id="linear-gradient-5" y1="0.5" x2="1" y2="0.5" gradientUnits="objectBoundingBox">
      <stop offset="0" stop-color="#8ec3f9"/>
      <stop offset="1" stop-color="#b8ebff"/>
    </linearGradient>
    <linearGradient id="linear-gradient-7" x1="-44.072" y1="8.209" x2="-43.072" y2="8.209" xlink:href="#linear-gradient-5"/>
    <linearGradient id="linear-gradient-9" x1="0.5" y1="0.177" x2="0.5" y2="1.652" xlink:href="#linear-gradient-4"/>
    <linearGradient id="linear-gradient-10" x1="0.5" y1="-0.025" x2="0.5" y2="3.622" xlink:href="#linear-gradient-4"/>
    <linearGradient id="linear-gradient-11" x1="0.859" y1="0.993" x2="-1.634" y2="-2.433" xlink:href="#linear-gradient-4"/>
    <linearGradient id="linear-gradient-12" x1="0.5" y1="-0.474" x2="0.5" y2="1.499" xlink:href="#linear-gradient-5"/>
    <linearGradient id="linear-gradient-13" x1="-16.456" y1="-0.474" x2="-16.456" y2="1.499" xlink:href="#linear-gradient-5"/>
    <linearGradient id="linear-gradient-14" x1="-17.981" y1="-1.018" x2="-17.981" y2="1.608" gradientUnits="objectBoundingBox">
      <stop offset="0" stop-color="#40d5e6"/>
      <stop offset="1" stop-color="#57f"/>
    </linearGradient>
    <linearGradient id="linear-gradient-15" x1="2.248" y1="-1.018" x2="2.248" y2="1.608" xlink:href="#linear-gradient-14"/>
    <linearGradient id="linear-gradient-16" x1="4.623" y1="-1.018" x2="4.623" y2="1.608" xlink:href="#linear-gradient-14"/>
    <linearGradient id="linear-gradient-17" x1="5.635" y1="-1.018" x2="5.635" y2="1.608" xlink:href="#linear-gradient-14"/>
    <linearGradient id="linear-gradient-19" x1="-16.744" y1="9.3" x2="-15.411" y2="13.409" xlink:href="#linear-gradient-5"/>
    <linearGradient id="linear-gradient-20" x1="-0.885" y1="10.039" x2="0.448" y2="14.148" xlink:href="#linear-gradient-5"/>
  </defs>
  <g id="Group_4" data-name="Group 4" transform="translate(-2243.445 339.728)">
    <g id="Layer_2" data-name="Layer 2" transform="translate(2243.445 -321.843)">
      <g id="OBJECTS" transform="translate(0 0)">
        <path id="Path_112" data-name="Path 112" d="M1834.457,1157.219a1337.247,1337.247,0,0,0-164.5-901.166S1550.407,7.828,1190.242,75.019,790.708,597.254,615.711,675.993,213.29,706.636,90.785,890.36A437.329,437.329,0,0,0,14.8,1157.219Z" transform="translate(79.815 353.058)" fill="#a8e3ff" opacity="0.25"/>
        <path id="Path_113" data-name="Path 113" d="M161.123,229.5H149.9c-1.115,2.821-1.9,4.4-1.9,4.4Z" transform="translate(823.112 1276.38)" fill="#75e9d6"/>
        <circle id="Ellipse_6" data-name="Ellipse 6" cx="18.044" cy="18.044" r="18.044" transform="translate(1232.46 315.48)" fill="url(#linear-gradient)"/>
        <circle id="Ellipse_7" data-name="Ellipse 7" cx="12.008" cy="12.008" r="12.008" transform="translate(833.32)" fill="url(#linear-gradient)"/>
        <circle id="Ellipse_8" data-name="Ellipse 8" cx="12.008" cy="12.008" r="12.008" transform="translate(1286.068 209.97)" fill="url(#linear-gradient)"/>
        <path id="Path_114" data-name="Path 114" d="M90.26,141.465A18.635,18.635,0,1,1,71.625,122.83,18.635,18.635,0,0,1,90.26,141.465Z" transform="translate(294.708 683.128)" fill="none" stroke="#00aeff" stroke-miterlimit="10" stroke-width="1"/>
        <path id="Path_115" data-name="Path 115" d="M142.685,119.9a12.008,12.008,0,1,1-3.493-8.533,12.008,12.008,0,0,1,3.493,8.533Z" transform="translate(659.992 599.704)" fill="none" stroke="#00aeff" stroke-miterlimit="10" stroke-width="1"/>
        <circle id="Ellipse_9" data-name="Ellipse 9" cx="12.008" cy="12.008" r="12.008" transform="translate(1509.161 193.566)" fill="none" stroke="#00aeff" stroke-miterlimit="10" stroke-width="1"/>
        <path id="Path_116" data-name="Path 116" stroke="#00aeff" d="M139.33,182.446h62.335V116.83H339.458" fill="none" transform="translate(774.894 649.758)" stroke-linecap="round" stroke-linejoin="round" stroke-width="1" stroke-dasharray="0 5"/>
        <path id="Path_117" data-name="Path 117" d="M226.792,382.109c66.534-81.691,73.424-180.049,73.424-180.049-112.334,7.349-199.8,119.224-239.366,180.049Z" transform="translate(338.422 1123.771)" fill="#00aeff"/>
        <path id="Path_118" data-name="Path 118" d="M415.537,648.453C394.475,562.759,287.062,189.143,8.72,154.17c0,0,4,285.691,185.758,494.283Z" transform="translate(48.497 857.427)" fill="#84d8ff"/>
        <path id="Path_119" data-name="Path 119" d="M309.772,425.99C257.673,346.464,144.683,203.553,0,194.17c0,0,8.858,126.113,93.7,231.82Z" transform="translate(0 1079.89)" fill="#00aeff"/>
        <path id="Path_120" data-name="Path 120" d="M565.22,416.583C501.507,296.178,399.869,173.8,246,154.12c0,0,4.068,285.691,185.758,494.283H546.914a1283.236,1283.236,0,0,0,18.307-231.82Z" transform="translate(1368.146 857.149)" fill="#84d8ff"/>
        <path id="Path_121" data-name="Path 121" d="M547.167,425.99c-52.1-79.526-165.155-222.437-309.837-231.82,0,0,8.858,126.113,93.7,231.82Z" transform="translate(1319.927 1079.89)" fill="#00aeff"/>
        <path id="Path_122" data-name="Path 122" d="M141.58,309.142a185.759,185.759,0,0,1-38.32-93.962c58.66,3.806,104.329,62.2,124.67,93.962Z" transform="translate(574.288 1196.739)" fill="#00aeff"/>
        <path id="Path_123" data-name="Path 123" d="M117.15,448.237c11.023-44.75,67.125-239.891,212.595-258.067,0,0-2.1,149.145-96.98,258.067Z" transform="translate(651.538 1057.644)" fill="#84d8ff"/>
        <path id="Path_124" data-name="Path 124" d="M129.43,332.111c27.165-41.535,86.153-116.14,161.743-121.061a241.86,241.86,0,0,1-48.949,121.061Z" transform="translate(719.834 1173.77)" fill="#00aeff"/>
        <circle id="Ellipse_10" data-name="Ellipse 10" cx="146.52" cy="146.52" r="146.52" transform="translate(1636.062 626.63)" fill="none" stroke="#00aeff" stroke-miterlimit="10" stroke-width="1"/>
        <circle id="Ellipse_11" data-name="Ellipse 11" cx="72.177" cy="72.177" r="72.177" transform="translate(437.46 1020.324)" fill="none" stroke="#00aeff" stroke-miterlimit="10" stroke-width="1"/>
        <circle id="Ellipse_12" data-name="Ellipse 12" cx="48.096" cy="48.096" r="48.096" transform="translate(1076.098 1007.201)" fill="none" stroke="#00aeff" stroke-miterlimit="10" stroke-width="1"/>
      </g>
    </g>
    <g id="Group_3" data-name="Group 3" transform="translate(412 -150)">
      <g id="Group_1" data-name="Group 1" transform="translate(6.988 49)">
        <rect id="Rectangle_5" data-name="Rectangle 5" width="273.222" height="250.928" transform="translate(2912.599 258.945)" fill="url(#linear-gradient-4)"/>
        <path id="Path_84" data-name="Path 84" d="M1536.4,733.1V908.551c0,34.446-14.289,62.326-31.907,62.326H1483.76V670.77h20.729C1522.106,670.77,1536.4,698.678,1536.4,733.1Z" transform="translate(1670.732 -436.411)" fill="url(#linear-gradient-5)"/>
        <rect id="Rectangle_6" data-name="Rectangle 6" width="273.222" height="250.928" transform="translate(2664.132 509.88) rotate(180)" fill="url(#linear-gradient-4)"/>
        <path id="Path_85" data-name="Path 85" d="M370.9,908.551V733.1c0-34.446,14.289-62.326,31.914-62.326h20.721V970.878H402.814C385.189,970.878,370.9,942.969,370.9,908.551Z" transform="translate(1998.704 -436.411)" fill="url(#linear-gradient-7)"/>
        <path id="Path_86" data-name="Path 86" d="M1156.116,745.562c0,156.313-108.615,287.271-254.51,321.478a332.59,332.59,0,0,1-151.355,0c-145.9-34.207-254.511-165.165-254.511-321.478,0-182.374,147.828-330.2,330.174-330.2,182.395-.07,330.272,147.808,330.2,330.2Z" transform="translate(1961.912 -361.139)" fill="url(#linear-gradient-5)"/>
        <circle id="Ellipse_1" data-name="Ellipse 1" cx="161.92" cy="161.92" r="161.92" transform="translate(2558.85 354.79) rotate(-45)" fill="#fff"/>
        <circle id="Ellipse_2" data-name="Ellipse 2" cx="141.107" cy="141.107" r="141.107" transform="translate(2588.284 354.79) rotate(-45)" fill="url(#linear-gradient-9)"/>
        <circle id="Ellipse_3" data-name="Ellipse 3" cx="91.469" cy="91.469" r="91.469" transform="translate(2678.449 423.831) rotate(-77.27)" fill="url(#linear-gradient-10)"/>
        <rect id="Rectangle_7" data-name="Rectangle 7" width="42.465" height="91.074" rx="21.233" transform="translate(2766.604 83.286)" fill="url(#linear-gradient-11)"/>
        <path id="Path_88" data-name="Path 88" d="M1070.411,728.536a38.086,38.086,0,1,1-38.086-38.086A38.086,38.086,0,0,1,1070.411,728.536Z" transform="translate(1814.999 -442.211)" fill="#fff" opacity="0.54"/>
        <circle id="Ellipse_4" data-name="Ellipse 4" cx="11.595" cy="11.595" r="11.595" transform="translate(2776.245 89.549)" fill="#fff"/>
        <path id="Path_89" data-name="Path 89" d="M1285.414,562.509l-31.1,83.527L1071.19,494.879l74.9-49.779A331.529,331.529,0,0,1,1285.414,562.509Z" transform="translate(1792.321 -369.903)" fill="url(#linear-gradient-12)"/>
        <path id="Path_90" data-name="Path 90" d="M552.87,562.51l31.124,83.527,183.1-151.15-74.9-49.786A331.53,331.53,0,0,0,552.87,562.509Z" transform="translate(1945.075 -369.903)" fill="url(#linear-gradient-13)"/>
        <path id="Path_93" data-name="Path 93" d="M1559.692,187.67l-228.182,1.051.762,165.39.162,34.834,34.672-35,193.348-.889Z" transform="translate(1715.601 -294.036)" fill="url(#linear-gradient-14)"/>
        <path id="Path_94" data-name="Path 94" d="M1504,307.741a17.428,17.428,0,1,1-17.484-17.371A17.428,17.428,0,0,1,1504,307.741Z" transform="translate(1675.04 -324.303)" fill="#fff"/>
        <path id="Path_95" data-name="Path 95" d="M1585.145,307.451a17.428,17.428,0,1,1-17.484-17.371,17.428,17.428,0,0,1,17.484,17.371Z" transform="translate(1651.124 -324.217)" fill="#fff"/>
        <path id="Path_96" data-name="Path 96" d="M1424.705,307.951a17.428,17.428,0,1,1-17.484-17.371A17.427,17.427,0,0,1,1424.705,307.951Z" transform="translate(1698.408 -324.365)" fill="#fff"/>
        <path id="Path_97" data-name="Path 97" d="M716.189,0l251.7,1.157-.839,182.43-.176,38.431L928.622,183.41l-213.272-.98Z" transform="translate(1897.19 -238.728)" fill="url(#linear-gradient-15)"/>
        <circle id="Ellipse_5" data-name="Ellipse 5" cx="19.226" cy="19.226" r="19.226" transform="matrix(0.602, -0.799, 0.799, 0.602, 2711.826, -135.891)" fill="#fff"/>
        <path id="Path_98" data-name="Path 98" d="M777.58,132.127A19.226,19.226,0,1,0,796.862,113,19.226,19.226,0,0,0,777.58,132.127Z" transform="translate(1878.851 -272.03)" fill="#fff"/>
        <path id="Path_99" data-name="Path 99" d="M954.55,132.673a19.226,19.226,0,1,0,19.283-19.163,19.226,19.226,0,0,0-19.283,19.163Z" transform="translate(1826.696 -272.18)" fill="#fff"/>
        <path id="Path_100" data-name="Path 100" d="M236.7,324.05l193.559.9-.642,140.3-.141,29.552L400.065,465.1l-164.015-.755Z" transform="translate(2038.445 -334.229)" fill="url(#linear-gradient-16)"/>
        <path id="Path_101" data-name="Path 101" d="M352.74,425.843a14.811,14.811,0,1,0,14.811-14.733,14.811,14.811,0,0,0-14.811,14.733Z" transform="translate(2004.056 -359.886)" fill="#fff"/>
        <path id="Path_102" data-name="Path 102" d="M283.9,425.661a14.811,14.811,0,1,0,14.811-14.741A14.811,14.811,0,0,0,283.9,425.661Z" transform="translate(2024.344 -359.83)" fill="#fff"/>
        <path id="Path_103" data-name="Path 103" d="M420,426.091a14.811,14.811,0,1,0,14.811-14.74A14.811,14.811,0,0,0,420,426.091Z" transform="translate(1984.233 -359.957)" fill="#fff"/>
        <path id="Path_104" data-name="Path 104" d="M.515,752.87l155.446.719-.522,112.663-.106,23.733-23.62-23.839L0,865.54Z" transform="translate(2108.012 -460.607)" fill="url(#linear-gradient-17)"/>
        <path id="Path_105" data-name="Path 105" d="M93.71,834.645a11.877,11.877,0,1,0,11.912-11.835A11.877,11.877,0,0,0,93.71,834.645Z" transform="translate(2080.395 -481.219)" fill="#fff"/>
        <path id="Path_106" data-name="Path 106" d="M38.43,834.465A11.87,11.87,0,1,0,50.335,822.63,11.87,11.87,0,0,0,38.43,834.465Z" transform="translate(2096.686 -481.166)" fill="#fff"/>
        <path id="Path_107" data-name="Path 107" d="M147.72,834.821A11.877,11.877,0,1,0,159.632,823a11.877,11.877,0,0,0-11.912,11.821Z" transform="translate(2064.477 -481.275)" fill="#fff"/>
        <path id="Path_108" data-name="Path 108" d="M.438,752.87l132.378.613-.444,95.944-.09,20.211-20.115-20.3L0,848.82Z" transform="translate(3341.012 -515.259)" fill="url(#linear-gradient-17)"/>
        <path id="Path_109" data-name="Path 109" d="M93.71,832.889a10.115,10.115,0,1,0,10.145-10.078A10.114,10.114,0,0,0,93.71,832.889Z" transform="translate(3303.587 -543.191)" fill="#fff"/>
        <path id="Path_110" data-name="Path 110" d="M38.43,832.708A10.109,10.109,0,1,0,48.569,822.63,10.108,10.108,0,0,0,38.43,832.708Z" transform="translate(3325.664 -543.119)" fill="#fff"/>
        <path id="Path_111" data-name="Path 111" d="M147.72,833.067A10.115,10.115,0,1,0,157.864,823a10.115,10.115,0,0,0-10.145,10.066Z" transform="translate(3282.017 -543.267)" fill="#fff"/>
      </g>
      <path id="Path_91" data-name="Path 91" d="M552.87,1120.6l31.124-83.549,183.128,151.172-74.93,49.8A331.578,331.578,0,0,1,552.87,1120.6Z" transform="translate(1945.075 -479.358)" fill="url(#linear-gradient-19)"/>
      <path id="Path_92" data-name="Path 92" d="M1285.415,1120.6l-31.1-83.549L1071.19,1188.222l74.9,49.786a331.577,331.577,0,0,0,139.323-117.41Z" transform="translate(1792.321 -479.358)" fill="url(#linear-gradient-20)"/>
    </g>
    <g id="Group_2" data-name="Group 2" transform="translate(425 17)">
      <g id="Layer_2-2" data-name="Layer 2" transform="translate(2081.002 416)">
        <g id="Слой_1" data-name="Слой 1">
          <path id="Path_1" data-name="Path 1" d="M166.83,264.79s19.09,1.15,24.44,4.13,41.45-8.4,42.12-11a6,6,0,0,0,0-3.92H162.53Z" fill="#de9673"/>
          <path id="Path_2" data-name="Path 2" d="M81.13,180.6s-6.09,47.86,0,54.13c23.26,24,109.49,22.06,109.49,22.06v9.74s-131.1,16.35-143.28-9.07c-14.63-30.55-9-80.36-9-80.36Z" fill="#de9673"/>
          <path id="Path_3" data-name="Path 3" d="M37.87,684.92l7.79-8.87L31.6,661.35l-11.87,8.31Z" fill="#2f4563"/>
          <path id="Path_4" data-name="Path 4" d="M19.73,669.66s16,12.09,20.5,12.57,6.57,2.48,6,9.27,6.52,35.43,11.43,35.89,21.64.55,24.67,11.58-53,8.71-56.53-.33-27.62-52.87-24.76-56.4S11.5,670.79,19.73,669.66Z" fill="#2b2b2b"/>
          <path id="Path_5" data-name="Path 5" d="M122.66,327.13s104.8,182.56,62.26,220.33c-16.68,14.82-32.74,28.21-55.82,48-12.27,10.53-27.09,22.74-44.65,41l-.73.77c-12.53,13.05-22.87,24.09-26,27.5l-.3.32-.36.38L45.35,676.62l-17.12-15s19.4-26.84,30.34-47.46c15.36-28.93,41.15-63,53.09-72.44,20.45-16.25,26.07-19.44,26.07-35,0-16.66-96.06-109.79-96.06-109.79S27.73,338.61,61,323.36C93.46,308.49,122.66,327.13,122.66,327.13Z" fill="#33373b"/>
          <path id="Path_6" data-name="Path 6" d="M42.74,713.2s-.66-8.4.76-13.78-21.7-2.29-21.7-2.29-3,22.45-2.11,27.59S42.74,713.2,42.74,713.2Z" fill="#5a5a5a"/>
          <path id="Path_7" data-name="Path 7" d="M47.06,699.45l-31.17,5.61S13.64,665.29,14,634.82c.44-32.76-1.21-58.51,8.8-84.58,9.35-24.39,7.22-33.68,8-50.33s-8-102.38-8-102.38-10.65-38.38,14-65.46C60.91,305.68,123,332,123,332S110,449.12,79,521.56c-8.8,20.5-4,33-15.26,64.64C63.76,586.16,46.73,655.25,47.06,699.45Z" fill="#444"/>
          <path id="Path_8" data-name="Path 8" d="M74.19,100.4a36.13,36.13,0,0,0-3.69,10,85.488,85.488,0,0,0-1.71,10.7,124.318,124.318,0,0,0-.63,13.62S26.58,125.68,33.41,116s2.8-39.09,2.8-39.09S79.58,91.33,74.19,100.4Z" fill="#eea987"/>
          <path id="Path_9" data-name="Path 9" d="M97.59,20.3s10.64,9.25,5.89,35.88c0,0,2.35,21.21,5.6,24.91s-8.72,5.07-10,7.73-3.64,15.13-12,22.65S37.47,96.33,35.46,83.53,4.83,15.87,50.13,13.36,97.59,20.3,97.59,20.3Z" fill="#eea886"/>
          <path id="Path_10" data-name="Path 10" d="M126.09,216.8c-.85,2.67,2.33,43.65,2,47.18-1.59,19.38,3.42,48.83,5.39,59.38.47,2.49.73,3.77.73,3.77-44.9,22-107.35,20-107.35,20,.22-1.7,8.94-22.8,9.16-24.42,3.7-26.36,9.16-38.39,7.68-56.22h0c-.83-10-3.38-20.49-8.66-33.46-15.25-37.46-14.42-62.4-11.93-83s8.65-32.31,8.65-32.31l37.94,4.07c8.05,8.92,15.21,13.67,38.1,34C132.18,177.44,136.44,184,126.09,216.8Z" fill="#00aeff"/>
          <path id="Path_11" data-name="Path 11" d="M18.29,718.89s21.94-6.23,22.59-6.85.8-1.94,3.83-.73,4.28,5.8,7.25,7.25S73,725.31,83,730.19c3.59,1.76,18.76,7.55,20.94,12.38s1.51,12.09-24.55,10.37-54.58,1.95-60.29-.9S16.8,726.44,18.29,718.89Z" fill="#2b2b2b"/>
          <path id="Path_12" data-name="Path 12" d="M104.61,46.61S109.7-8.69,56.08,1.18s-26,70.31-18.75,90c0,0-.88-30.59,24.94-31.59S93.42,52.63,104.61,46.61Z" fill="#464240"/>
          <path id="Path_13" data-name="Path 13" d="M58.07,51.84c-3.22-5.62-14.29-2.63-13,5.93S55.18,74.86,58.12,70.72,62.81,60.09,58.07,51.84Z" fill="#eea987"/>
          <path id="Path_14" data-name="Path 14" d="M59.29,160.48S54.87,207.85,61,214.13c23.23,23.96,115,24.41,115,24.41l4.39,13.78S44,261.61,31.78,236.19c-14.63-30.55-9-80.37-9-80.37Z" fill="#eea987"/>
          <path id="Path_15" data-name="Path 15" d="M39.09,14.79S18.44-5,3.76,17.42,21.2,71.16,34.22,52.58,39.09,14.79,39.09,14.79Z" fill="#464240"/>
          <path id="Path_16" data-name="Path 16" d="M70.5,110.42a85.488,85.488,0,0,0-1.71,10.7C55,114.82,44.65,95.59,44.65,95.59,54.65,104.21,70.5,110.42,70.5,110.42Z" fill="#a77860"/>
          <rect id="Rectangle_1" data-name="Rectangle 1" width="130.14" height="7.27" transform="translate(137.74 252.32)" fill="#6e6760"/>
          <rect id="Rectangle_2" data-name="Rectangle 2" width="130.14" height="7.27" transform="translate(261.374 256.29) rotate(-63.23)" fill="#6e6760"/>
          <path id="Path_17" data-name="Path 17" d="M156.86,238.54s19.09-1.46,24.44-5.25,41.45,10.69,42.12,14a9.578,9.578,0,0,1,0,5H152.56Z" fill="#eea987"/>
          <path id="Path_18" data-name="Path 18" d="M31.8,117.77l2.68-7.26,36.43,7.26v6.44Z" fill="#00aeff"/>
          <path id="Path_19" data-name="Path 19" d="M59.24,161.11S63.15,133.65,44,131.23s-21.21,24.7-21.21,24.7Z" fill="#eea987"/>
        </g>
      </g>
      <g id="Layer_2-3" data-name="Layer 2" transform="translate(2418.078 403.997)">
        <g id="Слой_1-2" data-name="Слой 1">
          <path id="Path_20" data-name="Path 20" d="M27.17,359.29s2.89,4.75,3.25,8.62c.29,3.07,2.87,7.65,4,10.19s4.71,14,4.84,17c0,1.22-2.67,8.91-2.29,11.36s1.8,7.33-.41,7.66-4.71-3.67-4.71-3.67a3.23,3.23,0,0,1-1.66,3.12c-3.63,1.68-5.55.21-5.55.21s-1.34,2.48-3,2.82c-3.71.74-5.53-.75-5.53-.75a6.66,6.66,0,0,1-4.19,1.35,5.5,5.5,0,0,1-4.66-2.9s-4.15.84-5.35-1.09-1-4-1.5-5.76-.12-17.6,5.27-29S4.3,355.92,4.3,355.92Z" fill="#eea886"/>
          <path id="Path_21" data-name="Path 21" d="M32.42,408.93s.37-14.22-3.37-17.24-4.17,2.1-4.17,2.1.51-5.07-3.58-5.76-4.3,5.34-4.3,5.34a3.94,3.94,0,0,0-5-3.1c-4.3.8-3.28,5.79-3.28,5.79s-4.1-4.89-6.76-.19c-4.49,7.94-.16,17.31-.16,17.31s1.26,2.15,5.35,1.09c0,0,2.74,5.51,8.85,1.55,0,0,6.26,3.45,8.55-2.07C24.63,413.75,31.53,417,32.42,408.93Z" fill="#db9c7c"/>
          <path id="Path_22" data-name="Path 22" d="M75.39,154.49s-24.33,81.11-32.56,111c-2.58,9.38-8.82,99-9.92,102.61s-32,8.55-32,8.55S4.68,264.58,5,258.46,39.09,127.15,48.89,122.68c7.35-3.34,11.23-.58,20.48,6.3C82.36,138.62,75.39,154.49,75.39,154.49Z" fill="#33373b"/>
          <rect id="Rectangle_3" data-name="Rectangle 3" width="66.58" height="4.94" transform="matrix(0.837, -0.548, 0.548, 0.837, 312.755, 40.859)" fill="#4da8f2"/>
          <path id="Path_23" data-name="Path 23" d="M377.11,25.36a14.371,14.371,0,0,1-1.44,4.41s-1.82,2.18-3,3.8a15.207,15.207,0,0,0-.88,1.29,26.49,26.49,0,0,1-4.6,7.16c-2.65,2.69-13,11.25-13,11.25l-8.85-7.52-9.19-4.12s5.14-22.37,7.33-25.17a8.176,8.176,0,0,1,.66-.76c2.08-2.18,4.54-2.94,5.76-4,.45-.38,5.18-3.78,6.87-3.34A5.68,5.68,0,0,1,361,11.94s4.53,1.39,6.29,4.05c0,0,4.22,1.15,5.47,5.08C372.77,21.07,376.92,22.72,377.11,25.36Z" fill="#efaa88"/>
          <path id="Path_24" data-name="Path 24" d="M55.65,708.35s-2.22,15.4-2.5,17.71-24.68-1.36-24.68-1.36l-2-18.34S52.6,706.18,55.65,708.35Z" fill="#424773"/>
          <path id="Path_25" data-name="Path 25" d="M53.41,724.1s7.73,9.28,15.21,13.33,19.23,5.64,23.65,9.83c3.19,3,11.63,16-19.43,15.77s-46,1.84-49.36-3.15,4.81-36.82,4.81-36.82S35.65,725.71,53.41,724.1Z" fill="#33373b"/>
          <path id="Path_26" data-name="Path 26" d="M230.5,708.35s-2.22,15.4-2.5,17.71-24.68-1.36-24.68-1.36l-2-18.34S227.45,706.18,230.5,708.35Z" fill="#424773"/>
          <path id="Path_27" data-name="Path 27" d="M228.26,724.1s7.73,9.28,15.21,13.33,35,7.36,39.42,11.55c3.19,3,8.5,15.19-35.2,14-31.05-.81-46,1.84-49.36-3.15s4.81-36.82,4.81-36.82S210.07,725.89,228.26,724.1Z" fill="#33373b"/>
          <path id="Path_28" data-name="Path 28" d="M75.85,312.65S52.92,349.08,54.63,382s-8.31,68.9-11.75,103.3C39,523.65,23.32,614.44,22.75,635s2.44,86,2.44,86l31.46.72S83.07,563,89.91,546.77s40.78-131.65,41.92-144.61S75.85,312.65,75.85,312.65Z" fill="#33373b"/>
          <path id="Path_29" data-name="Path 29" d="M196.56,317.59S213.84,407.84,216.12,428s3.8,97.54,4.94,110.13,10.65,164.47,13.69,183.56H194.53s-30.87-110.68-30.87-163S139.81,444.85,124.41,410.3s-50.63-35.37-60.1-99.47C64.31,310.79,183.75,297.26,196.56,317.59Z" fill="#33373b"/>
          <path id="Path_30" data-name="Path 30" d="M114.12,6.37s30.77-11.5,45,11.93,12.83,70.33-2.69,76.1-38.81,2.75-46.76-11.91-15.11-35.85-14.76-50S106,10.45,114.12,6.37Z" fill="#eea886"/>
          <path id="Path_31" data-name="Path 31" d="M153.05,95.47s-1.28,8.31.84,12.4-39.87,4.2-39.87,4.2S110.61,89.81,104.14,71,153.05,95.47,153.05,95.47Z" fill="#eea886"/>
          <path id="Path_32" data-name="Path 32" d="M104.14,71s2.9,4.79,14.73,2.93,26.26-17.59,31.2-19.32,5-4.63,5-4.63l3.09,4.52,5.25.33s-4.8-14.09,2.42-19.83S158.34-10.57,120.4,2.69c0,0-29.14,8-28.08,24.6S97.62,62.74,104.14,71Z" fill="#302015"/>
          <path id="Path_33" data-name="Path 33" d="M156.38,107.38s-.13-7.82-3.68-8.57-39.13-4.17-43.48-2.46v9.11S117.61,110.62,156.38,107.38Z" fill="#fff"/>
          <path id="Path_34" data-name="Path 34" d="M154.28,43.94c-.67-2.78-7.74-10.72-10.44-2.22s4.09,20,7.88,19S156,51,154.28,43.94Z" fill="#eea886"/>
          <path id="Path_35" data-name="Path 35" d="M215.24,119.22c-24.4-3.21-58.86-11.84-58.86-11.84l-47.16-1.92S65.94,115,48.89,122.68c-1.61.73-1.62,38.62-6.06,48.55L57,201s8.17,59.06,9.86,85.33C67.6,298.43,50,399.44,50,399.44s18.87,5.56,51.06,9.1,112.6-1.28,113.11-5.08-15.58-141.55-16.29-148.69c-1.09-11,3.78-69.13,3.78-69.13,7.43-5.76,72.68-36,90.48-51.83,4.76-4.23,24.87-23.81,30.58-30.57C343,79.31,359.54,58.78,361.56,54.35c2.3-2.51-22-15.71-24.19-16.45-1.93-.64-29.29,34.81-39.82,46.21-4.69,5.09-24.21,19.29-24.21,19.29S230.5,120.1,215.24,119.22Z" fill="#33373b"/>
          <path id="Path_36" data-name="Path 36" d="M105.35,9.13S66.11,12.2,104.14,71Z" fill="#302015"/>
          <path id="Path_37" data-name="Path 37" d="M371.17,8.53l3.22-4.91-5.93.77Z" fill="#dfe1e8"/>
        </g>
      </g>
      <g id="Layer_2-4" data-name="Layer 2" transform="translate(2805.984 403.996)">
        <g id="Слой_1-3" data-name="Слой 1">
          <path id="Path_38" data-name="Path 38" d="M290.67,712.09s2.22,15.54,2.49,17.87,24.68-1.37,24.68-1.37l2-18.51S293.72,709.89,290.67,712.09Z" fill="#5c544d"/>
          <path id="Path_39" data-name="Path 39" d="M292.9,728s-7.73,9.36-15.2,13.45-19.23,5.7-23.65,9.92c-3.19,3-11.63,16.19,19.43,15.92s46,1.86,49.35-3.18S318,726.93,318,726.93,310.66,729.61,292.9,728Z" fill="#3c4145"/>
          <path id="Path_40" data-name="Path 40" d="M115.85,712.09s2.21,15.54,2.49,17.87S143,728.59,143,728.59l2-18.51S118.9,709.89,115.85,712.09Z" fill="#5c544d"/>
          <path id="Path_41" data-name="Path 41" d="M118.08,728s-7.73,9.36-15.21,13.45-35,7.43-39.41,11.66c-3.19,3-8.5,15.33,35.2,14.18,31-.81,46,1.86,49.35-3.18s-4.82-37.17-4.82-37.17S136.27,729.79,118.08,728Z" fill="#3c4145"/>
          <path id="Path_42" data-name="Path 42" d="M282,310.78s13,38.57,11.28,71.81,6.71,69.62,10.16,104.34C307.28,525.64,323,617.29,323.56,638s-2.44,86.83-2.44,86.83l-31.45.72S263.25,565.34,256.41,549,215.64,416.1,214.5,403,282,310.78,282,310.78Z" fill="#33373b"/>
          <path id="Path_43" data-name="Path 43" d="M149.78,317.64S132.5,408.75,130.22,429.1s-3.8,98.45-4.94,111.17-7.6,166.39-13.68,185.28h40.21S182.67,613.84,182.67,561s23.85-114.92,39.24-149.79S272.54,375.51,282,310.8C282,310.78,162.59,297.12,149.78,317.64Z" fill="#3c4145"/>
          <path id="Path_44" data-name="Path 44" d="M231.5,6.28S199.8-5.56,185.19,18.57,172,91,188,96.94s40,2.83,48.15-12.27,15.57-36.92,15.21-51.51S239.82,10.49,231.5,6.28Z" fill="#eea886"/>
          <path id="Path_45" data-name="Path 45" d="M193.28,95.45s1.28,8.31-.84,12.4,39.87,4.2,39.87,4.2,3.41-22.26,9.87-41.07S193.28,95.45,193.28,95.45Z" fill="#eea886"/>
          <path id="Path_46" data-name="Path 46" d="M242.18,71s-2.9,4.78-14.73,2.93-26.26-17.59-31.19-19.32-5-4.63-5-4.63l-3.09,4.52-5.25.33s4.8-14.1-2.42-19.83S188-10.57,225.92,2.69c0,0,29.14,8,28.08,24.6S248.7,62.73,242.18,71Z" fill="#2d241c"/>
          <path id="Path_47" data-name="Path 47" d="M190,107.36s.13-7.82,3.68-8.57,39.12-4.17,43.47-2.46v9.11S228.72,110.6,190,107.36Z" fill="#fff"/>
          <path id="Path_48" data-name="Path 48" d="M192.05,43.93c.67-2.77,7.73-10.72,10.44-2.21s-4.09,19.94-7.88,19S190.37,51,192.05,43.93Z" fill="#eea886"/>
          <path id="Path_49" data-name="Path 49" d="M190,107.36s-19.51,7-42.1,16.61c0,0-26,9.71-28.8,38.41-1.49,15.23-17.71,96.09-20.76,102.93s-39,116.74-40.27,119,29.35,15,31.38,14,34.83-100.24,38.12-107.59c0,0,18.88-59.49,19.39-68.36,0,0,.54,25.28,1.55,32.37s-16.79,144.86-16.28,148.66,80.91,8.63,113.1,5.09a393.5,393.5,0,0,0,58.14-11S278.1,288.8,278.88,276.74c1.69-26.26,10.47-75.73,10.47-75.73l26.24,49.47L282,336.89l7.69,26.26s62.42-94.31,64.44-102.93-3.06-19.59-6.35-26.68-24.93-61.1-30-68.7-13.63-38-34.33-46.51c-17.31-7.09-46.35-12.89-46.35-12.89Z" fill="#00aeff"/>
          <rect id="Rectangle_4" data-name="Rectangle 4" width="151.79" height="105.89" transform="matrix(0.969, 0.248, -0.248, 0.969, 26.313, 293.86)" fill="#d6d6d6"/>
          <path id="Path_50" data-name="Path 50" d="M45.21,406.76s-4.2,6.79-5.73,8.73,3.77,3.15,6,1.19S45.21,406.76,45.21,406.76Z" fill="#c98462"/>
          <path id="Path_51" data-name="Path 51" d="M75.83,430s2.48-2.58,3-4.25c0,0,.74-3.09,1.39-5.26.22-.69.42-1.28.58-1.66.71-1.54,2.72-4.73,3.37-8.93s2.48-23,2.48-23L75.28,384l-9.15-1.93S46.36,401.77,45.3,405.6q-.15.57-.24,1.11c-.58,3.34.4,6.06.29,7.84,0,.66.06,7.2,1.59,8.42a6.38,6.38,0,0,0,6,1.46s4.29,3.15,7.86,3c0,0,3.86,3,8.24,1.53C69.07,428.92,73.33,431.55,75.83,430Z" fill="#de9d7d"/>
          <path id="Path_52" data-name="Path 52" d="M120.29,311s-26.1,79-30.89,87.33c0,0-19.14-4-31.38-14L86.67,299Z" fill="#00aeff"/>
        </g>
      </g>
      <g id="Layer_2-5" data-name="Layer 2" transform="translate(3181 417)">
        <g id="Слой_1-4" data-name="Слой 1">
          <path id="Path_53" data-name="Path 53" d="M295.49,382.82s-1.06-18.21-5.88-21-2,2.8-2,2.8,2.71,13.21,3.3,18.57C290.91,383.41,295.49,382.82,295.49,382.82Z" fill="#1d3b54"/>
          <path id="Path_54" data-name="Path 54" d="M167.24.07s45.25-3.76,44,43.84-8.78,54.77,0,88.41-44.12-19.11-44.12-19.11Z" fill="#434343"/>
          <path id="Path_55" data-name="Path 55" d="M129.17,128.7s-64.1,40-69.52,35.75c-7.59-5.95-28.18-56.7-28.18-56.7l-16.14,7.68s19.24,87.74,45.17,81.28,85.43-43.26,85.43-43.26Z" fill="#eea987"/>
          <path id="Path_56" data-name="Path 56" d="M216.55,294.24s16.66,21.24,22.54,35.29,15.69,44.85,14.38,68.7-9.15,68.62-6.86,78.75,4.57,31,7,38.23,12.26,28.1,13.24,49.67S253.14,681.21,253.8,690s-16.67,3.59-16.67,3.59S231.25,608,228,593.31s-7.19-64.7-10.13-68.29-11-40.85-9.73-46.73S176,384.18,174.07,366.54,123,294.24,123,294.24,165.9,277.82,216.55,294.24Z" fill="#eea987"/>
          <path id="Path_57" data-name="Path 57" d="M137,294.24s-.85,8.91-1.83,12.17S111.66,393,109.37,425s-8.17,59.18-9.15,66,1,29.72,2.94,35.6-9.8,144.75-10.78,148,7.84,4.25,14.05,3.27S144,576,142.05,559s-3.92-53.22,1.63-67.95,55.55-121.24,55.87-127.78S221.19,244.17,137,294.24Z" fill="#eea987"/>
          <path id="Path_58" data-name="Path 58" d="M237.44,683.2s-1.61,11.28-3.37,14.36-6.59,18.75-8.79,21.68-7,24.91,0,27.55,23.59,7,29.16-1.76a36.18,36.18,0,0,0,5.42-24.32C259,714,252.29,683,252.39,680S237.44,683.2,237.44,683.2Z" fill="#eea987"/>
          <path id="Path_59" data-name="Path 59" d="M228.09,713.16s-.76,17.07,12.14,17.07,18.6-15.54,18.6-15.54,4.39,7.63,0,23.89S236.12,751.47,232,750.89,208.48,745.16,228.09,713.16Z" fill="#33373b"/>
          <path id="Path_60" data-name="Path 60" d="M93.77,667.87s-9.11,16.3-14.52,19.6c-6.75,4.12-19.84,17.32-24.41,17.93s-21,3.53-17.83,12.8c2.6,7.61,41.8,6.52,46.22,2.71s17.64-17.49,23-17.19,3.35,19.73,3.35,19.73h5.79s2-18.9,2.27-22.15c.72-9.61-6.14-16.69-6.44-22.17s-.62-9.59-.62-9.59Z" fill="#33373b"/>
          <path id="Path_61" data-name="Path 61" d="M56.15,705s12.92,4.42,22.85-1.3,29-14.39,35.78-14.45c0,0-3.68-11.26-3.76-12.52s-.48-7.19-.48-7.19l-16.68-2.67s-10.83,15.89-15.6,19.63S61.29,699.58,56.15,705Z" fill="#eea987"/>
          <path id="Path_62" data-name="Path 62" d="M122.69,292.77s-4.66,19.36-6.38,25-12.72,93.08-15.43,147.78c0,0,65.92,25,156.59,20.83,0,0,2.21-100.48-6.12-128.91s-23.42-55-34.8-63.23C206.42,287,122.69,292.77,122.69,292.77Z" fill="#00aeff"/>
          <path id="Path_63" data-name="Path 63" d="M273.18,341.84a133.546,133.546,0,0,1-3.81,16c-2.48,7.86-4.75,10.37-3.76,14.88.75,3.4,4.6,5.95,5.57,4.86s1.44-14.32,6.92-14.26-1.64,16.39,1.62,15.19,15.83-8.08,15-14.75-5.82-11.48-5.49-21.45c.29-9-2.52-12.81-2.52-12.81Z" fill="#eea987"/>
          <path id="Path_64" data-name="Path 64" d="M11,111.53s7.65,9.94,12.37,11,9.78-10.41,9.78-10.41l-2.72-9.87Z" fill="#eea886"/>
          <path id="Path_65" data-name="Path 65" d="M29.87,108.2S33.53,96.74,34,95s-1.29-7-4.54-11.9A104.88,104.88,0,0,0,21,71.59c-.72-.72-1.12-1.53-3.51-.45a10,10,0,0,0-3.81,3.3s-3.57-.06-5.12,2.81A5.28,5.28,0,0,0,4,80.91s-3.33.18-4,2.84a39.749,39.749,0,0,1,1.64,6.87c.06,2,4.05,11.95,9.34,20.91C11,111.53,18.85,118.31,29.87,108.2Z" fill="#eea886"/>
          <path id="Path_66" data-name="Path 66" d="M21.47,93.31s-3.95,4.58-4.4,6.43-12-5-12-5S15.77,88.66,21.47,93.31Z" fill="#cf8c6c"/>
          <path id="Path_67" data-name="Path 67" d="M21.58,72.75S28,86.26,25.82,87.43a3.84,3.84,0,0,1-3.63.3l-.34,6.77s-2.75,4.36-6.69.08c0,0-2.15,4.34-5.47-.24,0,0-2.69,2.23-4.6.38S0,83.75,0,83.75s.2-2.23,4-2.84a5.19,5.19,0,0,1,4.58-3.66,7.87,7.87,0,0,1,6-3.71,5.89,5.89,0,0,1,6.49-2,7,7,0,0,1,.51,1.21Z" fill="#db9c7c"/>
          <path id="Path_68" data-name="Path 68" d="M33.91,94.51s-7.73-6.79-13.58-8.65c-1.33-.42-2.69-.58-3.57.49s-.47,3.71,2.73,6.83,5.91,8.6,5.91,8.6S29.63,104,33.91,94.51Z" fill="#eea886"/>
          <path id="Path_69" data-name="Path 69" d="M14.48,73.54s7.89,14,7.8,15.69,5.17-1.16,5.15-2.58S21.71,72.75,21,71.59,15.9,69.59,14.48,73.54Z" fill="#eea886"/>
          <path id="Path_70" data-name="Path 70" d="M22.59,74.3S10,50.83,8.16,51.69c-2.69,1.24-2,7.74,8.64,25.25C27.12,94,22.59,74.3,22.59,74.3Z" fill="#eea886"/>
          <path id="Path_71" data-name="Path 71" d="M125.73,177.34,99.85,143s46.27-35.84,60.55-13.05C160.4,129.94,161.42,167.49,125.73,177.34Z" fill="#33373b"/>
          <path id="Path_72" data-name="Path 72" d="M110.19,176.12c.73,11.52,6.61,21.08,7.59,25.24s0,13.73,1.23,23.28,4.9,55.14,3.68,68.13,89.15,7.12,96,3.2c0,0-15.23-27.21-15.63-38.49-.14-3.87-2.45-15.93,3.92-24.75,3.36-4.66,9.6-19.48,15.83-30.31h0c2.42-4.21,4.94-8.4,6.71-11.52h0a43.48,43.48,0,0,0,3.58-8.9s4-50-7-55.63-16.9-6.62-27.69-7.11a78.55,78.55,0,0,1-17.89-2.69l-25.24,2.69s-16.17,5.64-22.55,6.13-14.46,14.22-13.72,23S109.45,164.6,110.19,176.12Z" fill="#33373b"/>
          <path id="Path_73" data-name="Path 73" d="M277.56,362.8s-7.3,1.86-6.87,26.56L279,388s-.15-13.64,2.32-21.08C281.28,366.89,280.86,362.06,277.56,362.8Z" fill="#1d3b54"/>
          <path id="Path_74" data-name="Path 74" d="M247.25,394.93l64.37-18.26-.19,79.27-64.06,38.39Z" fill="#1d3b54"/>
          <path id="Path_75" data-name="Path 75" d="M247.37,494.33l8.07,1.49,62.3-38.75-.77-80.04-5.35-.36Z" fill="#1d3b54"/>
          <path id="Path_76" data-name="Path 76" d="M215.37,121.79s20-.08,29.11,17.57,10.05,36.27,12.26,42.89,8,45.54,10.17,51.18,15.31,43.9,18.5,65.47a430.111,430.111,0,0,1,3.86,43.44l-16.09-.5s-16-58.68-21.46-72.64c-4.7-11.94-6.5-32.79-9.2-40.15S223.16,170,219.73,166.32,198.27,125,215.37,121.79Z" fill="#eea886"/>
          <path id="Path_77" data-name="Path 77" d="M221.94,193.29l40.85-12.86s-12.53-60.26-47.42-58.64C187.38,123.08,221.94,193.29,221.94,193.29Z" fill="#33373b"/>
          <path id="Path_78" data-name="Path 78" d="M171.66,4.89c-11.21-1.83-36.88,1-44.15,30.43A93.781,93.781,0,0,0,128.72,50c1.23,6.55-6.58,24.57-5.2,25.66s7.36,3,7.36,3,4.25,21.15,11.42,21.79,34.93-1.85,50.6-25.76S217,12.31,171.66,4.89Z" fill="#eea886"/>
          <path id="Path_79" data-name="Path 79" d="M153,92.26s.55,3,1.07,7.32c.26,2.23.52,4.82.68,7.56.45,7.59.22,16.37-2.37,21.94,0,0,14.05,8.71,29.12-12.23,0,0-1.47-26.13,7.18-39.95S153,92.26,153,92.26Z" fill="#eea886"/>
          <path id="Path_80" data-name="Path 80" d="M127.51,35.32S144.39,49.9,162.27,54.5s27.35,24.68,27.35,24.68S221.26,47.62,202.17,17,127.54,0,127.51,35.32Z" fill="#434343"/>
          <path id="Path_81" data-name="Path 81" d="M154.11,99.58c.26,2.23.52,4.82.68,7.56A79,79,0,0,0,179.26,89C170,95.63,154.11,99.58,154.11,99.58Z" fill="#a77860"/>
          <path id="Path_82" data-name="Path 82" d="M165.56,55.55s18.3,49.18,16.1,61c0,0,9.68-1.67,26.92,3.6C208.58,120.17,200.25,32.42,165.56,55.55Z" fill="#434343"/>
          <path id="Path_83" data-name="Path 83" d="M187.77,118.16s-6,36.88-28.32,32.72-5.39-31.2-5.39-31.2S162.77,111.86,187.77,118.16Z" fill="#eea886"/>
        </g>
      </g>
    </g>
  </g>
</svg>
