<svg xmlns="http://www.w3.org/2000/svg" width="429" height="70.954" viewBox="0 0 429 70.954">
  <g id="Group_650" data-name="Group 650" transform="translate(-170 -191)">
    <g id="Layer_2" data-name="Layer 2" transform="translate(170 191.001)">
      <g id="Layer_1" data-name="Layer 1" transform="translate(0 -0.001)">
        <path id="Path_440" data-name="Path 440" d="M0,8.066A14.124,14.124,0,0,1,1.176,4.853C3.22,1.438,6.278-.015,10.193,0,20.217.035,30.239.028,40.269.032H70.923a9.337,9.337,0,0,1,9.264,9.041q.1,16.922,0,33.844A9.274,9.274,0,0,1,72.7,51.8a11.715,11.715,0,0,1-2.387.227h-31.5a2.436,2.436,0,0,0-1.816.672c-2.337,2.206-4.69,4.381-7.038,6.567q-5.8,5.408-11.606,10.817a4.507,4.507,0,0,1-1.559.87H16.4c-1.977-.719-2.337-1.226-2.337-3.4q0-7.389.011-14.774c0-.568-.18-.755-.75-.757-1.494,0-2.988.047-4.485-.056a9.452,9.452,0,0,1-8.521-6.8A4.389,4.389,0,0,0,0,44Zm68.73,6.472-.058-.167L12.685,21.506c.1.284.306.374.469.5q2.866,2.249,5.735,4.494a1.41,1.41,0,0,1,.636,1.32c-.275,3.583-.539,7.166-.653,10.758,0,.228-.129.539.072.667s.431-.128.627-.239c2.763-1.584,5.526-3.168,8.269-4.775a.815.815,0,0,1,1.093.108c1.037.886,2.107,1.735,3.151,2.616a.747.747,0,0,0,1.043.072c.658-.457,1.352-.861,2.03-1.289L64.193,17.421c1.517-.956,3.026-1.925,4.537-2.889Z" transform="translate(0 0.001)" fill="#00aeff"/>
        <path id="Path_441" data-name="Path 441" d="M1354.948,59.232a26.336,26.336,0,0,1-1.9,10.137,15.35,15.35,0,0,1-10.984,9.247,22.309,22.309,0,0,1-11.838-.218,15.291,15.291,0,0,1-10.642-10.3,29.361,29.361,0,0,1-1.328-11.451,24.157,24.157,0,0,1,2.107-8.749A15.094,15.094,0,0,1,1330.8,39.35a22.4,22.4,0,0,1,12.338.221c5.551,1.7,8.976,5.546,10.657,11.025A30.778,30.778,0,0,1,1354.948,59.232ZM1336.431,71.7c.36,0,.719.013,1.079,0a8.667,8.667,0,0,0,8.629-6.551,21.1,21.1,0,0,0,.791-7.432,18.5,18.5,0,0,0-1.064-5.736,8.3,8.3,0,0,0-5.783-5.393,15.555,15.555,0,0,0-5.057-.36,8.469,8.469,0,0,0-7.8,5.7,21.58,21.58,0,0,0-.092,13.774,7.928,7.928,0,0,0,4.1,4.919,10.79,10.79,0,0,0,5.212,1.077Z" transform="translate(-1081.205 -31.654)" fill="#00aeff"/>
        <path id="Path_442" data-name="Path 442" d="M1560.474,53.624V41.25a3.59,3.59,0,0,1,1.992-3.439,3.945,3.945,0,0,1,4.149.216,3.46,3.46,0,0,1,1.591,3.07V63.773a15.21,15.21,0,0,0,.257,2.767,4.277,4.277,0,0,0,3.585,3.648,12.311,12.311,0,0,0,5.521.027,4.607,4.607,0,0,0,3.847-4.841c.216-8.009.07-16.019.1-24.028a3.687,3.687,0,0,1,2.031-3.552,3.869,3.869,0,0,1,4.243.36,3.462,3.462,0,0,1,1.454,2.758c.018.345,0,.69,0,1.037.025,5.267.1,10.535.052,15.8-.025,2.806,0,5.612-.081,8.417a11.5,11.5,0,0,1-9.024,11.417,21.089,21.089,0,0,1-11.027-.1c-4.685-1.3-7.426-4.534-8.426-9.3a16.669,16.669,0,0,1-.281-3.475Q1560.483,59.17,1560.474,53.624Z" transform="translate(-1279.928 -30.613)" fill="#00aeff"/>
        <path id="Path_443" data-name="Path 443" d="M545.048,78.222c-4.43-.018-8.077-.9-11.221-3.353a11.7,11.7,0,0,1-3.6-4.291,3.182,3.182,0,0,1,1.133-4.1,3.069,3.069,0,0,1,4.284.938c2.249,3.6,5.589,4.777,9.616,4.563a9.973,9.973,0,0,0,4.577-1.208c2.724-1.568,3.04-6.412.342-8.135A19.63,19.63,0,0,0,546,60.617a68.122,68.122,0,0,1-7.813-2.813c-2.272-1.106-4.332-2.484-5.461-4.854-2.461-5.168-.969-11.922,5.409-14.328a16.687,16.687,0,0,1,16.1,1.837,13.8,13.8,0,0,1,3.031,3.146,3.181,3.181,0,0,1-1.814,4.723,3.459,3.459,0,0,1-3.5-1.206,9.222,9.222,0,0,0-5.3-3.209,10.571,10.571,0,0,0-5.889.428,3.972,3.972,0,0,0-2.639,3.381,3.642,3.642,0,0,0,1.808,3.547,22.087,22.087,0,0,0,5.456,2.414,38.3,38.3,0,0,1,7.658,3.182c2.157,1.309,4.056,2.918,4.8,5.393,1.379,4.584.949,8.87-2.641,12.429a12.617,12.617,0,0,1-6.447,3.1A15.331,15.331,0,0,1,545.048,78.222Z" transform="translate(-434.641 -30.644)" fill="#00aeff"/>
        <path id="Path_444" data-name="Path 444" d="M1768.833,60.487V74.509a3.7,3.7,0,0,1-3.213,3.844,4.062,4.062,0,0,1-4.412-2.157,3.785,3.785,0,0,1-.334-1.666V46.359c0-1.149-.038-1.188-1.194-1.188-2.137,0-4.275.014-6.412,0A3.712,3.712,0,0,1,1749.525,42a3.88,3.88,0,0,1,2.432-4.352,3.556,3.556,0,0,1,1.226-.221q11.606,0,23.212-.013a3.9,3.9,0,0,1,.723,7.718,22.245,22.245,0,0,1-2.772.068c-1.521,0-3.042-.018-4.562-.02-.818,0-.951.137-.951.973Q1768.829,53.314,1768.833,60.487Z" transform="translate(-1434.955 -30.685)" fill="#00aeff"/>
        <path id="Path_445" data-name="Path 445" d="M725.648,58.312V40.874a2.979,2.979,0,0,1,2.6-3.011,3.12,3.12,0,0,1,3.3,2.082,3.182,3.182,0,0,1,.1,1.03V51.45c0,.814.061.863.791.539a12.59,12.59,0,0,1,6.112-1.239,11.632,11.632,0,0,1,7.18,2.828,8.259,8.259,0,0,1,2.653,6.172c.124,5.377.061,10.758.045,16.138a2.886,2.886,0,0,1-3.045,2.812,2.917,2.917,0,0,1-2.95-2.905c0-4.469,0-8.936-.023-13.406a12,12,0,0,0-.372-3.087,3.313,3.313,0,0,0-2.506-2.47,8.4,8.4,0,0,0-3.991-.065,4.61,4.61,0,0,0-3.775,4.577c-.2,4.074-.129,8.151-.1,12.224a17.8,17.8,0,0,1-.029,2.59,3.023,3.023,0,0,1-3.259,2.538,2.957,2.957,0,0,1-2.731-2.932Q725.648,67.03,725.648,58.312Z" transform="translate(-595.197 -31.031)" fill="#00aeff"/>
        <path id="Path_446" data-name="Path 446" d="M910.794,121.362a19.137,19.137,0,0,1-1.476,7.745,9.9,9.9,0,0,1-6.729,5.932,15.286,15.286,0,0,1-8.34.117,10.2,10.2,0,0,1-7.292-6.558,19.628,19.628,0,0,1,.219-14.648c1.67-3.987,4.949-5.862,9.105-6.4a15.056,15.056,0,0,1,6.175.455,10.452,10.452,0,0,1,7.531,7.793,20.641,20.641,0,0,1,.636,3.112A13.925,13.925,0,0,1,910.794,121.362Zm-6.227.327a13.824,13.824,0,0,0-.324-3.337A6.831,6.831,0,0,0,902.7,114.9a6,6,0,0,0-4.962-1.6c-2.7.113-4.347,1.231-5.159,3.775a14.43,14.43,0,0,0,.1,9.316,4.806,4.806,0,0,0,3.786,3.3,9.436,9.436,0,0,0,3.3.031,4.841,4.841,0,0,0,4.1-3.6,12.873,12.873,0,0,0,.7-4.422Z" transform="translate(-726.435 -88.104)" fill="#00aeff"/>
        <path id="Path_447" data-name="Path 447" d="M1080.383,119.454c0,2.517.013,5.034,0,7.55-.025,3.915-2.127,7.3-5.537,8.478a16.08,16.08,0,0,1-11.261,0,8.2,8.2,0,0,1-5.33-6.6,32.7,32.7,0,0,1-.262-6.161q0-5.562-.014-11.128a2.9,2.9,0,0,1,2.294-2.921,2.983,2.983,0,0,1,3.723,2.916c.011,4.494,0,8.989.011,13.472a10.636,10.636,0,0,0,.316,2.635,3.277,3.277,0,0,0,2.425,2.474,9.025,9.025,0,0,0,4.944,0,3.714,3.714,0,0,0,2.58-3.667c.23-4.944.077-9.887.111-14.831a3.074,3.074,0,0,1,4-2.948,2.855,2.855,0,0,1,2.015,2.734c.011,2.67,0,5.337,0,8.005Z" transform="translate(-867.78 -89.06)" fill="#00aeff"/>
        <path id="Path_448" data-name="Path 448" d="M1215.51,91.945V85.179c0-.827-.1-.924-.94-.973a2.953,2.953,0,0,1,.189-5.9c.566,0,.78-.158.762-.742-.036-1.2-.016-2.409,0-3.613a2.959,2.959,0,0,1,3.04-2.887,2.888,2.888,0,0,1,3.016,2.819c.022,1.2.025,2.409,0,3.613-.013.581.156.861.786.807a14.585,14.585,0,0,1,1.51,0,2.85,2.85,0,0,1,2.831,2.5,3.008,3.008,0,0,1-2.337,3.382,6.679,6.679,0,0,1-1.893.074c-.692-.067-.883.111-.883.789V97.137a7.227,7.227,0,0,0,.142,1.3,1.47,1.47,0,0,0,1.573,1.285c2.531.18,3.892,2.558,2.634,4.624a2.745,2.745,0,0,1-2.267,1.366,7.358,7.358,0,0,1-8.149-7.324C1215.5,96.238,1215.51,94.092,1215.51,91.945Z" transform="translate(-993.903 -58.285)" fill="#00aeff"/>
        <path id="Path_449" data-name="Path 449" d="M115.75,119.306c.059-2.337.212-4.64.4-6.946.036-.426.36-.48.687-.559q4.259-1.025,8.516-2.062l25.484-6.172q2.68-.651,5.364-1.285c.12-.029.246-.041.43-.072-.1.333-.36.36-.55.43l-23.75,8.413q-6.272,2.222-12.55,4.439a3.342,3.342,0,0,0-1.508,1.079c-.7.859-1.415,1.7-2.125,2.547a.345.345,0,0,1-.4.189Z" transform="translate(-94.941 -83.835)" fill="#00aeff"/>
      </g>
    </g>
    <g id="Group_649" data-name="Group 649" transform="translate(3 23)">
      <rect id="Rectangle_574" data-name="Rectangle 574" width="68" height="55" transform="translate(528 168)" fill="#212121"/>
      <path id="Path_481" data-name="Path 481" d="M-15.618-5.586V0h-5.776V-5.586ZM4.294-5.4H-6.46L-8.36,0h-5.662l9.88-26.524H1.976L11.818,0H6.156ZM2.85-9.462-1.1-20.786-5.054-9.462ZM20.064-26.828V0H14.706V-26.828Z" transform="translate(562 209)" fill="#fff"/>
    </g>
  </g>
</svg>
